<?xml version="1.0" encoding="utf-8"?>
<!-- Generator: Adobe Illustrator 24.3.0, SVG Export Plug-In . SVG Version: 6.00 Build 0)  -->
<svg version="1.0" id="katman_1" xmlns="http://www.w3.org/2000/svg" xmlns:xlink="http://www.w3.org/1999/xlink" x="0px" y="0px"
	 viewBox="0 0 500 500" style="enable-background:new 0 0 500 500;" xml:space="preserve">
<style type="text/css">
	.st0{clip-path:url(#SVGID_2_);}
	.st1{clip-path:url(#SVGID_4_);}
	.st2{fill:#72B52D;}
	.st3{fill:#010201;}
</style>
<g>
	<defs>
		<rect id="SVGID_1_" x="18.92" y="17.7" width="463.01" height="463.01"/>
	</defs>
	<clipPath id="SVGID_2_">
		<use xlink:href="#SVGID_1_"  style="overflow:visible;"/>
	</clipPath>
	<g class="st0">
		<g>
			<defs>
				<rect id="SVGID_3_" x="24.35" y="10.07" width="452.15" height="478.25"/>
			</defs>
			<clipPath id="SVGID_4_">
				<use xlink:href="#SVGID_3_"  style="overflow:visible;"/>
			</clipPath>
			<g class="st1">
				<path class="st2" d="M223.84,461.11c-22.49,0.15-44.98,0.83-67.05-5.11c-46.37-12.48-81.01-40.52-106.7-80.3
					c-17.5-27.1-25.28-57.19-25.51-89.25c-0.24-34.15-0.34-68.31-0.02-102.46c0.46-49.42,20.48-90.24,55.67-124.19
					c25.06-24.18,54.26-40.51,88.74-46.84c9.78-1.81,19.71-2.75,29.66-2.79c34.62-0.1,69.23-0.1,103.85-0.01
					c46.02,0.14,85.75,16.05,119.21,47.71c30.67,28.99,49.03,64.1,53.72,106.14c0.7,6.39,1.04,12.82,1.04,19.25
					c0.09,42.42,0.1,84.85,0.04,127.27c-0.01,28.87-21.31,50.23-50.23,50.29c-33.85,0.07-67.7-0.02-101.55,0.06
					c-4.91,0.01-9.69-1.55-14.63-0.95c-5.73-3.74-11.43-7.52-17.19-11.2c-1.64-1.05-3.65-1.57-4.5-3.59
					c-5.31-9.94-10-20.13-11.73-31.51c-1.98,6.5-3.24,13.09-6.64,18.95c-10.09-7.16-19.68-14.99-28.73-23.43
					c0.81-0.36,1.6-0.77,2.43-1.08c17.15-6.4,27.74-18.65,31.61-36.4c2.3-10.55,0.85-21.35,0.85-32.04
					c6.42-14.82,13.27-29.44,21.09-43.59c1.52-2.83,3.44-5.43,5.71-7.7c6.14-5.99,13.86-5.35,18.8,1.66
					c2.06,3.02,3.7,6.31,4.86,9.77c-1.08,0.73-0.89,1.86-0.89,2.91c0.02,27.86-0.15,55.72,0.14,83.58
					c0.17,16.95,8.38,24.67,25.51,24.78c16.38,0.11,32.76,0.08,49.14,0.03c16.9-0.05,25.39-8.47,25.5-25.45
					c0.1-15.46,0-30.92-0.01-46.38c8.81-4.59,18.36-7.61,28.2-8.91c2.16-0.27,3.83-0.7,4.52-3.04c1.22-4.13,1.25-8.12-1.05-11.93
					c-3.16-5.2-7.97-6.12-13-2.68c-5.61,3.83-11.67,6.63-18.52,7.43l-0.25-26.56c0.95-1.91,2.95-2.58,4.52-3.74
					c4.41-3.25,5.2-7.66,2.15-12.28c-1.8-2.73-4.51-3.96-7.48-4.83c-0.98-16.01-5.94-30.84-13.32-44.95
					c-6.81-13.01-16.25-24.02-26.38-34.49c4.26-15.22-0.77-23.04-16.56-25.68c-1.79-0.37-3.6-0.64-5.42-0.81
					c-12.71-0.7-23.98-4.4-32.03-15.04c-0.69-0.82-1.45-1.58-2.27-2.26c-4.32-4.03-9.3-5.28-15.2-4.42
					c-9.5,1.39-14.94,7.51-19.21,15.28l-84.58-0.15c-0.26-3.93,0.64-7.83,0.04-11.8c-0.68-4.54-3.37-6.37-8.78-5.43
					c-5.08,0.88-6.96,3.57-5.67,8.23c0.8,2.91,1.71,5.79,2.57,8.69l-5.99,0.49c-5.93-12.29-11.45-24.67-10.94-38.81
					c0.16-4.39-4.1-7.44-9.31-7.07c-5.48,0.39-10.57,4.89-9.94,8.89c0.19,0.89,0.6,1.72,1.18,2.41
					c7.62,9.76,11.33,21.23,14.39,32.97c0.31,1.18,1.48,2.83,0,3.78c-0.75,0.52-1.64,0.83-2.56,0.87c-0.92,0.04-1.83-0.17-2.63-0.62
					c-2.66-1.55-4.92-3.69-6.62-6.26c-2.95-4.29-5.79-8.65-8.66-12.99c-2.08-3.4-4.59-6.51-7.46-9.28
					c-1.26-1.26-2.88-2.08-4.64-2.35c-1.76-0.27-3.56,0.04-5.13,0.87c-3.62,1.65-5.15,4.65-5.18,8.46
					c-0.03,5.4,3.35,9.76,8.87,11.52c1.27,0.4,3.03,0.11,3.49,1.72c1.59,5.5,6.1,9.03,9.02,13.62c-0.98,1.57-2.77,1.79-4.25,2.5
					c-29.16,13.99-52.6,33.89-66.07,64.04c-7.1,15.89-9.9,32.69-10.25,49.97c-6.59-3.88-12.31-8.98-18.52-13.39
					c-3.28-2.33-6.55-2.45-9.73-0.07c-3.45,2.58-4.37,6.16-3.22,10.2c1.11,3.93,3.06,6.99,7.89,6.78
					c10.57-0.46,17.59,5.66,23.88,13.07c-0.09,3.94-0.18,7.87-0.28,11.81c-4.02-0.3-7.59-2.15-11.34-3.38
					c-4.34-1.42-8.57-3.22-13.24-3.34c-5.38-0.13-7.86,2.14-8.2,7.48c-0.5,7.68,0.65,9.32,6.78,9.99
					c8.78,0.96,17.59,1.81,26.21,3.88c-0.01,20.21-0.01,40.43-0.02,60.65c0.08,12.41,2.09,24.74,5.95,36.53
					c6.51,20.33,18.78,36.89,33.77,51.73c19.73,19.54,43.1,31.31,70.87,34.08c14.67,1.47,29.37,0.44,44.06,0.72
					c11.32,0.22,22.64,0.23,33.97,0.34c-0.17,1.24-1.31,1.62-2.08,2.32C247.36,427.93,231.56,441.21,223.84,461.11z"/>
				<path class="st3" d="M198.33,59.84c-0.86-2.89-1.77-5.78-2.57-8.69c-1.29-4.66,0.59-7.35,5.67-8.23c5.41-0.94,8.1,0.9,8.78,5.43
					c0.6,3.97-0.3,7.87-0.04,11.8c-1.24,8.76-3.42,17.41-2.89,26.37c0.49,8.46,3.73,15.02,12.22,18.09c3.49,1.2,6.54,3.43,8.73,6.4
					c-0.06,2.27,2.32,4.67-0.35,6.8c-2.74,2.19-5.46,1.19-8.18-0.05c-0.83-0.38-1.61-0.91-2.47-1.21c-1.16-0.41-2.46-0.71-3.54,0.05
					c-1.41,0.98-0.35,2.23-0.05,3.32c1.82,6.57,6.61,10.85,11.61,14.96c1.65,1.36,2.03-0.04,2.62-1.1
					c4.23-7.61,8.47-15.22,12.7-22.83c2.61-2.98,5.13-6.06,7.85-8.93c7.49-7.92,17.22-12.61,26.42-18.04
					c9.44-5.56,16.34-13.21,19.89-23.68c4.26-7.78,9.71-13.89,19.21-15.28c5.9-0.86,10.88,0.39,15.2,4.42
					c0.82,0.69,1.58,1.45,2.27,2.26c8.04,10.64,19.32,14.33,32.03,15.04c1.82,0.17,3.63,0.44,5.42,0.81
					c15.78,2.64,20.82,10.46,16.56,25.68c-2.78,4-5.35,8.16-8.38,11.97c-12.81,16.09-26.82,31-43.54,43.16
					c-1.56,1.13-3.16,2.02-3.1,4.57c0.31,14.72,2.78,28.92,10.23,41.81c7.43,12.86,18.03,20.94,33.65,20.94
					c3.17,0,4.55-0.92,5.12-4.2c1.19-6.8-0.16-13.41-0.78-20.09c-0.18-1.93-1.07-3.98,0.26-5.76c1.88-2.53,9.02-3.52,12.5-1.84
					c4.06,1.97,4.76,5.12,3.34,9.16c-0.92,2.58-1.68,5.22-2.28,7.9c-0.78,2.98-0.68,6.11,0.28,9.04c1.01,2.83,1.99,3.51,4.72,1.36
					c10.38-8.21,15.58-19.33,18.61-31.79c1.7-6.99,1.73-7,9.07-6.78c2.97,0.87,5.68,2.11,7.48,4.83c3.04,4.61,2.25,9.03-2.15,12.28
					c-1.57,1.16-3.56,1.83-4.52,3.74c-2.58,1.47-3.37,4.18-4.51,6.61c-3.15,6.74-4.35,14.12-7.12,21.34
					c4.24,0.08,8.12-0.01,11.87-1.39c6.85-0.79,12.91-3.59,18.52-7.42c5.04-3.44,9.85-2.52,13,2.68c2.31,3.8,2.27,7.79,1.05,11.93
					c-0.69,2.34-2.36,2.76-4.52,3.04c-9.85,1.31-19.39,4.33-28.2,8.91c-3.51,1.45-7.05,2.84-10.52,4.37
					c-10.33,4.54-20.76,8.51-32.06,10.3c-16.93,2.68-44.88-11.9-49.42-29.71c-2.1-8.24-4.91-16.29-7.4-24.43
					c-1.16-3.46-2.8-6.75-4.86-9.77c-4.94-7.02-12.66-7.65-18.81-1.66c-2.27,2.27-4.2,4.87-5.71,7.7
					c-7.82,14.14-14.67,28.76-21.09,43.59c-7.25,16.2-18.28,29.7-30.28,42.52c-3.39,3.53-6.18,7.59-8.26,12.02
					c-5.11,11.25-5.02,7.88,3.66,14.99c9.05,8.44,18.64,16.27,28.73,23.43c5.75,4.73,11.28,9.79,18.37,12.57
					c0.85,2.02,2.86,2.54,4.5,3.59c5.76,3.69,11.47,7.46,17.19,11.2c3.09,2.91,6.39,5.63,9.23,8.77c8.73,9.67,9.22,21.76,1.43,32.21
					c-2.64,3.56-5.63,6.84-8.94,9.78c-0.98,0.93-2,1.83-2.93,2.81c-6.64,6.99-14.15,13.13-20.28,20.61
					c-1.25,1.52-2.99,3.18-2.29,5.27c1.87,6.03,5.65,11.3,10.77,14.99c0.49,0.39,1.11,0.59,1.73,0.57c0.63-0.02,1.23-0.26,1.69-0.68
					c0.97-0.88,0.39-1.98,0.1-2.99c-0.96-3.34-3.87-5-6.17-7.21c-1.64-1.57-3.87-3.44-2.71-5.77c0.69-1.56,1.77-2.9,3.14-3.91
					c1.37-1,2.98-1.63,4.67-1.82c3.28-0.33,4.13,2.15,5.05,4.39c1.62,3.95,2.93,8.04,4.65,11.95c1.73,3.92,4.74,4.7,8.72,3.18
					c4.56-1.74,6.23-5.11,6.2-9.66c-0.03-4.74-0.33-9.5-0.11-14.23c0.21-4.37,4.17-8.41,7.48-7.75c4.45,0.89,4.86,4.52,4.76,8.22
					c-0.07,2.75-0.44,5.51-0.34,8.25c0.14,4.09,1.96,5.44,5.98,4.73c4.74-0.84,7.34-4.04,8.99-8.27c2.73-7.01,3.63-14.5,5.61-21.7
					c2-2.96,3.52-6.36,7.39-7.49c5.82-1.69,9.34,0.32,12.51,7.23c0.02,4.16-1.27,8.21-3.69,11.59c-2.88,4.31-5.98,8.49-9.04,12.67
					c-3.88,5.29-8.14,10.4-10.3,16.69c-0.95,2.78-3.25,5.75-0.47,8.84c0.95,0.92,2.17,1.53,3.48,1.73
					c6.73,1.52,13.16,0.19,19.57-1.68l1.32-0.23c3.47-0.52,6.95-0.94,10.39-1.58c3.25-0.6,5.34,0.49,6.24,3.68
					c0.7,2.01,1.22,4.07,1.57,6.17c0.61,5.79-1.11,7.95-6.85,9.09c-7.87,1.56-15.84,1.52-23.76,0.98c-12.98-0.91-26,0.84-38.28,5.14
					c-13.09,4.51-27.21,5.09-40.62,1.69c-15.22-3.65-30.82-4.22-46.3-5.83c-2.43-0.25-4.83-0.7-7.18-1.33
					c-8.88-2.38-11-6.08-8.96-15.19c0.15-0.9,0.25-1.8,0.29-2.71c7.73-19.89,23.52-33.18,38.56-47.09c0.76-0.71,1.91-1.08,2.08-2.32
					c9.45-7.47,18.12-15.88,25.88-25.1c1.63-1.92,0.52-2.35-1.19-3.07c-18.96-7.94-37.89-15.93-56.81-23.97
					c-10.88-5.57-21.1-12.27-31.66-18.39c-7.15-4.15-14.5-7.91-22.56-10.02c-7.76-2.04-15.56-3.07-23.44-0.51
					c-1.38-0.21-2.79,0.1-3.95,0.88c-3.15,1.7-4.35,0.83-4.9-2.62c-1.04-6.54-3.64-12.57-6.87-18.34
					c-5.52-9.86-11.01-19.74-16.47-29.63c-9.14-16.64-18.57-33.04-32.12-46.68c-4.13-4.16-8.7-6.52-14.51-6.59
					c-8.62-2.07-17.42-2.92-26.21-3.88c-6.13-0.67-7.28-2.31-6.78-9.99c0.35-5.34,2.83-7.61,8.2-7.48c4.66,0.11,8.9,1.91,13.24,3.34
					c3.75,1.23,7.32,3.07,11.34,3.38c3.43,1.54,6.89,1.63,11.05,0.22c-3.87-4.13-6.66-8.63-10.78-12.03
					c-6.29-7.41-13.31-13.53-23.88-13.07c-4.83,0.21-6.78-2.85-7.89-6.78c-1.14-4.04-0.23-7.62,3.22-10.2
					c3.19-2.38,6.45-2.27,9.73,0.07c6.21,4.42,11.93,9.51,18.52,13.39c9.34,7.73,19.21,14.82,29.52,21.21
					c0.39-3.14-1.03-5.13-2.33-7.16c-1.57-2.43-3.93-4.24-5.22-6.92c-2.03-4.21,0.63-6.53,3.38-8.78c2.73-2.23,4.7-0.56,6.67,1.4
					c3.91,3.91,5.75,8.93,7.6,13.92c3.01,8.12,5.34,16.51,9.49,24.18c1.54,2.25,2.68,4.92,5.96,5.97c0.42-4.77,0.8-9.15,1.2-13.53
					c0.53-5.81,1.45-11.51,5.18-16.3c3.95-5.07,9.66-7.16,15.59-7.49c4.05-0.22,5.88,4.28,8.23,7.13c1.82,2.25,3.46,4.65,4.89,7.17
					c3.19,5.52,6.22,11.13,9.31,16.71c3.88,9.6,8.95,18.68,15.11,27.01c3.83-26.84,11.13-51.49,19.51-75.85
					c2.12-6.17,2.09-6.18-4.24-8.47c-9.06-6.29-14-15.43-17.41-25.55c-2.08-6.19-3.88-12.48-5.8-18.72
					c-2.53-12.05-5.79-23.89-11.02-35.07c-3.35-7.16-8.73-12.72-15.06-17.39c-2.91-4.6-7.42-8.12-9.01-13.62
					c-0.47-1.62-2.22-1.32-3.49-1.72c-5.53-1.76-8.9-6.12-8.87-11.52c0.02-3.82,1.56-6.81,5.18-8.46c1.57-0.83,3.37-1.14,5.13-0.87
					c1.76,0.27,3.39,1.09,4.64,2.35c2.87,2.77,5.38,5.88,7.46,9.28c2.87,4.34,5.71,8.71,8.66,12.99c1.7,2.57,3.96,4.71,6.62,6.26
					c0.8,0.45,1.71,0.66,2.63,0.62c0.92-0.04,1.8-0.35,2.56-0.87c1.48-0.95,0.31-2.6,0-3.78c-3.06-11.74-6.77-23.21-14.39-32.97
					c-0.58-0.7-0.99-1.53-1.18-2.41c-0.63-4,4.46-8.5,9.94-8.89c5.21-0.37,9.47,2.68,9.31,7.07c-0.52,14.14,5.01,26.52,10.94,38.81
					c1.38,3.54,2.77,7.08,4.41,11.3C199.62,67.39,200.21,63.77,198.33,59.84z M278.09,461.04c1.12-0.11,2.22-0.29,3.31-0.56
					c4.7-1.34,5.09-2.9,1.7-6.54c-0.86-0.97-1.91-1.75-3.08-2.31c-1.17-0.56-2.44-0.88-3.74-0.95c-1.29-0.07-2.59,0.13-3.81,0.57
					c-1.22,0.44-2.34,1.12-3.3,1.99c-3.18,2.86-2.91,4.4,1.12,6.1C272.76,460.42,275.41,460.99,278.09,461.04z"/>
				<path class="st2" d="M356.52,411.64c-1.98,7.21-2.89,14.69-5.61,21.7c-1.65,4.23-4.25,7.44-8.99,8.27
					c-4.03,0.71-5.84-0.64-5.99-4.73c-0.1-2.74,0.28-5.5,0.34-8.25c0.09-3.69-0.31-7.33-4.76-8.22c-3.32-0.66-7.28,3.38-7.48,7.75
					c-0.22,4.73,0.07,9.49,0.11,14.23c0.03,4.55-1.64,7.92-6.2,9.66c-3.98,1.51-7,0.74-8.72-3.18c-1.72-3.91-3.03-7.99-4.65-11.95
					c-0.92-2.24-1.77-4.72-5.05-4.39c-1.69,0.19-3.3,0.82-4.67,1.82c-1.37,1.01-2.45,2.35-3.14,3.91c-1.16,2.33,1.07,4.2,2.71,5.77
					c2.3,2.21,5.21,3.87,6.17,7.21c0.29,1.01,0.87,2.11-0.1,2.99c-0.47,0.42-1.07,0.66-1.69,0.68c-0.63,0.02-1.24-0.18-1.73-0.57
					c-5.12-3.7-8.9-8.96-10.77-14.99c-0.7-2.09,1.04-3.74,2.29-5.27c6.13-7.48,13.64-13.62,20.28-20.61
					c0.93-0.98,1.95-1.88,2.93-2.81c1.64,1.25,3.54,0.65,5.31,0.67C330.24,411.49,343.38,411.55,356.52,411.64z"/>
				<path class="st2" d="M352.92,461.17c-2.78-3.08-0.48-6.06,0.47-8.84c2.16-6.29,6.42-11.39,10.3-16.69
					c3.07-4.18,6.16-8.36,9.04-12.67c2.42-3.38,3.71-7.44,3.69-11.59c1.62,1.12,0.88,2.81,0.89,4.21
					c0.05,15.13,0.01,30.26-0.01,45.39c-0.44,0.08-0.88,0.15-1.32,0.23C368.3,461.21,360.61,461.19,352.92,461.17z"/>
				<path class="st2" d="M124.76,222.46c1.83-3.14,0.78-6.56,0.79-9.81c0.06-18.36,3.46-35.89,13.04-51.77
					c10.64-17.63,24.64-31.75,43.7-40.33c1.92,6.24,3.72,12.53,5.8,18.72c3.41,10.12,8.34,19.26,17.41,25.55
					c-14.61,7.91-23.89,19.95-28.23,35.97c-1.9,7.03-1.46,14.22-2.15,21.33c-3.09-5.58-6.12-11.19-9.31-16.71
					c-1.43-2.52-3.06-4.92-4.89-7.17c-2.35-2.85-4.19-7.35-8.23-7.13c-5.93,0.33-11.64,2.42-15.59,7.49
					c-3.73,4.79-4.65,10.49-5.18,16.3c-0.4,4.38-0.78,8.76-1.2,13.53C127.44,227.38,126.3,224.71,124.76,222.46z"/>
				<path class="st2" d="M232.34,359.55c-31.5,5.44-56.47-6.65-77.65-28.93c7.87-2.56,15.67-1.53,23.43,0.51
					c8.06,2.12,15.41,5.88,22.56,10.02C211.24,347.28,221.47,353.98,232.34,359.55z"/>
				<path class="st2" d="M228.22,111.01c4.1-0.48,8.24-0.5,12.35-0.06c-4.23,7.61-8.47,15.22-12.7,22.83
					c-0.59,1.06-0.97,2.46-2.62,1.1c-5-4.12-9.8-8.39-11.61-14.96c-0.3-1.09-1.35-2.33,0.05-3.32c1.09-0.76,2.38-0.46,3.54-0.05
					c0.86,0.3,1.63,0.83,2.47,1.21c2.71,1.25,5.44,2.24,8.18,0.05C230.54,115.68,228.16,113.28,228.22,111.01z"/>
				<path class="st2" d="M278.09,461.04c-2.68-0.05-5.33-0.62-7.8-1.69c-4.03-1.7-4.3-3.24-1.12-6.1c0.96-0.88,2.08-1.55,3.3-1.99
					c1.22-0.44,2.52-0.63,3.81-0.57c1.29,0.07,2.57,0.39,3.74,0.95c1.17,0.56,2.22,1.35,3.08,2.31c3.39,3.63,3,5.2-1.7,6.54
					C280.32,460.75,279.21,460.93,278.09,461.04z"/>
			</g>
		</g>
	</g>
</g>
</svg>
